<?xml version="1.0" encoding="iso-8859-1"?>
<!-- Generator: Adobe Illustrator 21.0.0, SVG Export Plug-In . SVG Version: 6.00 Build 0)  -->
<svg version="1.1" id="Capa_1" xmlns="http://www.w3.org/2000/svg" xmlns:xlink="http://www.w3.org/1999/xlink" x="0px" y="0px"
	 viewBox="0 0 512 512" style="enable-background:new 0 0 512 512;" xml:space="preserve">
<path style="fill:#FF6B6B;" d="M256,512C114.841,512,0,397.159,0,256S114.841,0,256,0s256,114.841,256,256S397.159,512,256,512z"/>
<path style="fill:#EE5253;" d="M256,36.056C134.722,36.056,36.056,134.722,36.056,256S134.722,475.944,256,475.944
	S475.944,377.278,475.944,256S377.278,36.056,256,36.056z"/>
<path style="fill:#E4EAF8;" d="M310.415,174.805l-52.624,52.624c-0.965,0.965-2.53,0.965-3.495,0l-52.805-52.805
	c-4.498-4.498-14.606-4.02-22.486,3.859c-7.104,7.104-8.983,17.687-4.022,22.648l52.046,52.046c1.385,1.385,1.385,3.629,0,5.014
	l-52.046,52.046c-4.961,4.961-3.082,15.545,4.022,22.648c7.879,7.88,17.988,8.357,22.486,3.859l52.286-52.286
	c1.252-1.251,3.281-1.251,4.532,0l52.106,52.106c5.293,5.293,14.743,3.526,22.469-4.201c7.756-7.756,9.416-16.928,4.038-22.307
	l-52.028-52.028c-1.295-1.295-1.295-3.393,0-4.688l52.028-52.027c5.378-5.378,3.718-14.551-4.038-22.307
	C325.158,171.279,315.708,169.512,310.415,174.805z"/>
<path style="fill:#EE5253;" d="M20.605,256c0-137.707,109.298-250.347,245.698-255.775C262.883,0.089,259.452,0,256,0
	C114.841,0,0,114.841,0,256s114.841,256,256,256c3.452,0,6.883-0.089,10.302-0.225C129.903,506.347,20.605,393.707,20.605,256z"/>
<path style="fill:#E24951;" d="M56.661,256c0-117.824,93.129-214.295,209.641-219.695c-3.415-0.158-6.849-0.249-10.302-0.249
	C134.722,36.056,36.056,134.722,36.056,256S134.722,475.944,256,475.944c3.454,0,6.887-0.09,10.302-0.249
	C149.79,470.295,56.661,373.824,56.661,256z"/>
<path style="fill:#D8DCE5;" d="M195.589,310.236l52.046-52.046c1.384-1.384,1.384-3.629,0-5.014l-52.046-52.046
	c-5.517-5.517-2.661-18.199,7.115-25.294l-1.213-1.213c-4.498-4.498-14.606-4.02-22.486,3.859
	c-7.104,7.104-8.983,17.687-4.022,22.648l52.046,52.046c1.384,1.384,1.384,3.629,0,5.014l-52.046,52.046
	c-4.961,4.961-3.082,15.545,4.022,22.648c7.879,7.88,17.988,8.357,22.486,3.859l1.213-1.213
	C192.891,328.408,190.094,315.731,195.589,310.236z"/>
<g>
</g>
<g>
</g>
<g>
</g>
<g>
</g>
<g>
</g>
<g>
</g>
<g>
</g>
<g>
</g>
<g>
</g>
<g>
</g>
<g>
</g>
<g>
</g>
<g>
</g>
<g>
</g>
<g>
</g>
</svg>
